PathFileType	4	(X/Y/Z)	C:/Users/beibeiliu/ov580/test_trc\sequence.45_training_dense_left.trc
DataRate	CameraRate	NumFrames	NumMarkers	Units	OrigDataRate	OrigDataStartFrame	OrigNumFrames
120	120	23	19	mm	120	1	84
Frame#	Time	ThumbCMC			ThumbMCP			ThumbIP			ThumbTip			IndexMCP			IndexPIP			IndexTip			MiddleMCP			MiddlePIP			MiddleTip			RingMCP			RingPIP			RingTip			PinkyMCP			PinkyPIP			PinkyTip			BackHand1			BackHand2			BackHand3	
		X0	Y0	Z0	X1	Y1	Z1	X2	Y2	Z2	X3	Y3	Z3	X4	Y4	Z4	X5	Y5	Z5	X6	Y6	Z6	X7	Y7	Z7	X8	Y8	Z8	X9	Y9	Z9	X10	Y10	Z10	X11	Y11	Z11	X12	Y12	Z12	X13	Y13	Z13	X14	Y14	Z14	X15	Y15	Z15	X16	Y16	Z16	X17	Y17	Z17	X18	Y18	Z18	
0	0	-149.776	11.1604	43.542	-134.992	-2.80572	22.7495	-124.502	-9.51767	1.20079	-122.551	-19.7976	-22.2742	-159.016	14.5814	-24.3585	-151.348	4.75916	-46.4334	-142.844	-17.5454	-65.4417	-178.33	10.0634	-31.8977	-176.595	-0.0252554	-57.2672	-172.737	-20.9491	-76.134	-194.908	3.42128	-27.7071	-194.324	-3.91925	-47.4959	-190.256	-18.8243	-65.6021	-213.994	-7.00139	-14.7023	-213.308	-13.0594	-30.5544	-207.195	-21.6538	-50.9219	-200.134	17.001	15.3435	-203.045	21.0724	45.8663	-177.616	27.8242	29.7928	
1	0.00833333	-151.55	9.92803	42.2861	-134.637	-2.4253	22.3952	-130.319	-9.84996	1.88723	-124.106	-20.3311	-20.5567	-159.296	13.9386	-24.8456	-152.299	2.09728	-49.0535	-144.563	-19.1034	-64.5221	-177.557	9.43832	-33.507	-176.154	1.25288	-54.2455	-173.091	-21.0778	-75.4282	-199.333	2.5238	-24.9967	-193.124	-4.40689	-46.7879	-188.523	-21.2294	-68.9885	-211.481	-6.41346	-10.1265	-212.989	-15.1869	-34.6176	-210.726	-21.1026	-50.1049	-202.439	15.0011	19.7278	-202.377	21.7735	43.8711	-176.607	26.6963	29.0946	
2	0.0166667	-151.537	8.81238	44.36	-136.192	-3.13009	25.142	-127.041	-11.053	-1.26556	-125.395	-19.6398	-16.3593	-153.773	13.7364	-27.6478	-152.776	3.0875	-46.7148	-141.72	-13.8725	-62.7406	-180.047	9.77039	-30.0855	-176.246	0.623103	-54.7461	-171.047	-17.3945	-74.9244	-194.354	4.09909	-22.7527	-192.669	-6.59985	-50.3776	-189.778	-20.8607	-67.8695	-213.087	-6.18682	-11.5574	-213.476	-14.8605	-32.1772	-208.89	-22.2479	-48.9489	-202.931	15.2988	19.3383	-201.034	19.9192	44.0671	-178.032	25.7416	32.1238	
3	0.025	-149.189	9.92887	35.6634	-138.113	-3.6882	17.8504	-130.156	-11.7439	-3.41347	-125.827	-21.1715	-19.4969	-159.814	14.6222	-30.8925	-152.35	5.13249	-53.8886	-151.725	-10.8424	-67.3739	-180.851	11.6642	-31.933	-180.079	1.32759	-60.0515	-177.705	-16.6232	-79.2364	-196.821	4.83399	-28.4229	-197.11	-5.26598	-52.37	-192.571	-15.7243	-67.5701	-211.042	-5.21309	-12.906	-212.931	-11.8848	-35.0052	-213.496	-20.5023	-52.6861	-202.43	14.8678	13.9442	-205.769	19.1091	40.1533	-177.916	26.7175	26.0557	
4	0.0333333	-158.105	5.41993	26.8606	-142.496	-8.71761	3.6109	-133.248	-17.8028	-14.295	-130.579	-29.0254	-33.7921	-167.912	15.5467	-38.9356	-167.323	8.50474	-62.0424	-161.611	-6.29201	-81.9298	-189.524	11.0922	-47.5642	-189.301	-0.554413	-72.2671	-188.858	-15.8559	-89.2881	-210.257	-0.451041	-36.087	-206.537	-8.22106	-62.9968	-204.278	-23.5906	-79.4673	-224.231	-11.8525	-23.1634	-220.848	-16.58	-41.7436	-222.802	-27.252	-60.5124	-210.126	12.7567	5.90178	-205.229	17.6503	30.1985	-184.254	22.3563	15.6817	
5	0.0416667	-166.773	-5.73952	2.63552	-153.725	-21.5448	-15.2118	-147.144	-32.5282	-36.8072	-141.207	-45.0393	-52.7534	-183.043	4.13965	-56.054	-189.121	-4.71155	-83.1593	-183.871	-15.0039	-101.363	-209.237	-4.14616	-62.0051	-209.316	-12.1616	-86.4217	-211.239	-32.7094	-104.489	-225.005	-14.221	-50.5698	-225.273	-24.5068	-76.6945	-222.716	-38.1547	-90.8876	-234.995	-24.2014	-36.5633	-234.798	-31.3763	-53.3354	-235.349	-46.07	-70.745	-217.377	1.03754	-6.14146	-215.803	4.52516	16.6853	-191.341	11.7603	-1.2516	
6	0.05	-173.379	-18.5727	-20.1615	-161.217	-37.2207	-38.0225	-157.637	-49.6088	-52.775	-153.439	-61.9124	-70.8681	-202.885	-14.5235	-80.707	-202.698	-19.5093	-100.39	-205.418	-32.9636	-121	-224.862	-22.3903	-80.6813	-225.639	-30.0862	-102.641	-226.902	-53.5712	-123.345	-233.285	-30.3248	-66.6215	-238.512	-42.9375	-90.5055	-233.423	-60.7466	-109.607	-248.204	-43.7586	-51.5448	-248.334	-56.1244	-71.9467	-246.135	-69.1606	-85.4641	-225.641	-15.7329	-24.4952	-225.048	-9.44294	-0.319241	-204.686	-1.71836	-20.7585	
7	0.0583333	-180.393	-29.8558	-34.8997	-169.533	-51.0872	-52.8313	-163.278	-65.5817	-74.2487	-159.467	-79.9882	-87.7107	-213.193	-30.9354	-97.4103	-215.491	-41.3223	-121.61	-219.324	-54.7907	-136.459	-233.853	-40.0698	-96.8737	-237.613	-52.0481	-117.875	-232.804	-78.6073	-136.639	-243.427	-48.2322	-82.8201	-250.098	-65.7254	-103.217	-244.178	-83.4549	-116.336	-257.204	-61.4982	-67.2427	-255.835	-73.4416	-81.6575	-249.371	-93.6872	-96.0527	-238.846	-31.3043	-39.3035	-232.347	-22.4124	-19.0002	-210.958	-13.552	-41.0297	
8	0.0666667	-188.647	-41.9791	-47.5111	-178.557	-64.2794	-64.3152	-175.426	-78.9442	-79.8586	-173.21	-96.9491	-96.7597	-221.823	-46.5271	-104.126	-226.234	-61.6163	-129.343	-221.801	-80.5773	-145.804	-240.703	-56.2903	-101.598	-246.052	-77.5963	-124.717	-237.006	-102.113	-134.036	-252.888	-67.0407	-90.0219	-254.648	-86.2307	-107.613	-240.907	-107.079	-117.716	-261.795	-76.7736	-68.3015	-259.786	-91.7351	-85.3734	-248.897	-112.692	-95.1494	-243.97	-44.7087	-49.4306	-238.698	-34.4739	-24.3677	-219.836	-28.0502	-49.0173	
9	0.075	-197.837	-49.1172	-46.082	-182.313	-72.3948	-65.2412	-178.324	-86.9957	-79.7558	-182.043	-105.604	-91.5747	-229.282	-59.3763	-105.23	-233.741	-75.3915	-123.33	-225.938	-98.6161	-136.629	-246.109	-70.885	-103.27	-244.505	-92.0413	-122.589	-230.406	-117.885	-122.457	-255.058	-80.818	-90.8257	-255.258	-103.249	-103.271	-235.099	-122.166	-105.071	-260.922	-88.5381	-67.9585	-256.547	-110.117	-83.286	-238.189	-123.008	-86.3627	-253.333	-57.2287	-46.6479	-247.28	-45.5698	-27.51	-227.944	-36.4493	-48.6705	
10	0.0833333	-199.496	-47.5457	-42.7155	-186.065	-69.8001	-59.2625	-182.258	-86.3726	-75.9975	-182.916	-105.838	-90.3098	-232.413	-63.1229	-98.4946	-228.799	-79.061	-117.713	-215.078	-104.674	-122.796	-246.166	-76.226	-97.9222	-238.355	-96.6403	-113.048	-219.189	-119.591	-103.816	-255.761	-89.4508	-80.3505	-244.834	-109.117	-95.1494	-218.662	-121.508	-88.6165	-257.363	-94.3217	-62.8359	-246.399	-114.035	-76.9878	-223.921	-119.985	-72.2312	-254.566	-61.5228	-39.6663	-248.631	-50.8963	-21.3201	-234.307	-38.8884	-41.8367	
11	0.0916667	-198.402	-36.4513	-26.6642	-178.677	-53.4379	-48.7586	-175.057	-68.4004	-67.0382	-178.889	-87.0236	-79.8836	-225.328	-49.0719	-89.2689	-216.41	-67.2491	-107.692	-199.87	-85.3862	-107.378	-237.058	-64.4673	-85.7663	-223.482	-87.9051	-101.192	-197.417	-100.284	-84.1022	-244.184	-79.5139	-71.0517	-226.575	-95.6287	-85.0498	-204.072	-104.334	-72.0426	-245.325	-88.7994	-60.3312	-230.959	-101.584	-67.7068	-205.987	-103.479	-55.1185	-251.3	-54.3593	-31.5782	-247.157	-45.7282	-7.4055	-229.261	-29.971	-31.6583	
12	0.1	-194.878	-12.7335	-15.063	-176.275	-27.5471	-33.8674	-165.43	-37.7034	-54.145	-164.471	-54.5033	-71.1112	-215.435	-22.8799	-76.4592	-200.841	-36.3948	-93.6098	-180.716	-51.3382	-89.5891	-222.736	-40.5833	-75.1443	-202.633	-60.7023	-86.1813	-181.339	-68.1838	-67.4689	-229.638	-60.4609	-61.1298	-203.026	-69.4629	-70.9261	-184.627	-70.5338	-51.9575	-231.914	-70.9358	-45.2062	-211.612	-79.2059	-54.9839	-188.37	-69.991	-39.613	-238.803	-35.8203	-20.9315	-237.306	-29.0041	8.11703	-225.367	-11.762	-12.7639	
13	0.108333	-187.144	20.9946	9.11098	-165.303	13.3155	-16.316	-156.924	4.43004	-37.1396	-152.785	-12.3857	-53.8941	-207.922	10.0979	-53.356	-190.501	1.97822	-73.1713	-161.943	-9.84919	-64.6779	-209.732	-8.57484	-59.0418	-184.019	-19.8302	-67.7191	-164.04	-23.6468	-46.8612	-210.691	-26.8289	-47.9316	-187.111	-33.177	-52.5043	-169.711	-28.4309	-31.266	-211.767	-38.7018	-35.7548	-187.104	-42.3538	-36.8554	-174.841	-29.0691	-20.8529	-229.073	-11.0682	-3.9693	-230.688	-5.62347	23.138	-222.027	16.399	8.95794	
14	0.116667	-185.626	57.6687	32.9312	-162.364	55.4581	12.3218	-150.369	50.1931	-9.50783	-145.06	34.8735	-27.8083	-199.646	46.5722	-33.1734	-179.187	42.0091	-48.5203	-152.071	36.6993	-38.202	-198.827	30.6533	-34.1678	-170.834	24.5956	-44.0872	-151.767	20.8955	-14.9993	-196.506	10.4182	-27.0853	-169.253	8.86802	-28.7266	-159.004	15.5718	-6.51438	-195.594	-7.3177	-16.583	-173.525	-4.23454	-18.5434	-161.93	11.1062	5.17719	-222.172	14.0644	18.7773	-220.734	20.0601	42.5935	-218.336	43.0112	28.7929	
15	0.125	-185.725	85.5296	58.7987	-162.668	88.3708	36.6307	-149.633	86.9866	13.2679	-139.137	74.8952	-0.319067	-196.255	80.4295	-6.89377	-173.123	81.5334	-22.7863	-145.027	73.6736	-9.33522	-192.592	59.2283	-9.93127	-159.774	61.9463	-16.7987	-145.592	59.684	9.39455	-187.857	41.0162	-3.48404	-161.13	46.1287	-4.55296	-152.323	49.5965	21.4182	-184.357	24.0316	5.52772	-162.575	33.7524	5.16204	-156.525	47.0136	28.2474	-213.303	41.2129	37.3276	-215.723	42.3617	65.0401	-217.126	69.2934	49.8361	
16	0.133333	-186.68	103.082	81.8685	-162.9	111.412	56.3366	-151.221	109.712	38.4816	-139.948	95.9626	18.0282	-195.247	97.1271	15.5892	-168.931	98.3778	-0.722958	-145.262	99.0279	12.6492	-187.259	76.6511	11.5891	-156.216	80.2221	4.21873	-143.822	81.4516	32.8761	-179.544	64.1387	15.7918	-151.933	67.3534	17.8514	-148.565	72.173	47.3367	-174.787	46.0958	24.5385	-154.922	55.33	25.8068	-152.031	66.5188	48.4467	-208.022	54.9206	59.9751	-212.102	56.6375	81.8578	-214.199	81.0498	68.8332	
17	0.141667	-187.754	109.172	91.2561	-165.601	117.471	72.819	-152.647	118.404	51.8322	-139.125	107.225	31.1149	-195.284	104.028	26.83	-168.481	104.857	10.5976	-146.904	108.81	26.2572	-181.917	84.2108	18.6139	-154.927	91.175	15.9615	-145.506	90.9679	49.9454	-174.34	67.2188	25.6572	-149.245	75.3855	27.7237	-148.652	84.8451	56.4434	-171.752	53.3604	36.8362	-147.965	64.5961	39.4217	-147.967	74.8592	59.0181	-204.486	60.2004	67.2741	-207.378	56.8277	91.3709	-211.83	81.7346	80.8075	
18	0.15	-193.529	108.164	88.9362	-172.446	117.157	72.6418	-156.638	120.998	48.2879	-144.524	107.894	34.5302	-195.063	97.5388	26.7655	-170.799	104.554	10.1718	-149.132	109.481	30.0475	-182.301	81.2642	21.1435	-150.281	90.2355	20.1045	-145.254	94.4617	47.7166	-171.744	65.7198	28.8119	-144.788	78.1415	32.3383	-147.912	87.1177	61.4592	-165.015	52.2887	39.8677	-145.871	69.9714	41.7082	-147.746	81.455	60.5958	-200.945	57.0691	69.5274	-206.513	52.6326	94.4844	-210.315	76.8003	80.979	
19	0.158333	-201.075	105.934	83.111	-183.004	124.855	64.7244	-167.843	126.256	45.4815	-148.364	119.001	30.2963	-191.731	91.0271	16.5257	-171.935	102.672	5.35043	-155.067	115.839	28.3523	-175.321	80.2967	15.1592	-152.708	98.8395	15.2722	-149.108	104.031	45.5269	-161.188	67.9888	25.4091	-144.827	86.0177	29.1703	-149.785	96.4914	57.944	-156.58	54.8663	41.0109	-139.576	74.7787	40.4353	-145.786	88.682	61.7513	-195.844	53.936	63.5587	-201.097	54.9598	92.9853	-214.009	77.6782	75.2935	
20	0.166667	-207.007	105.507	77.0932	-192.371	127.212	53.153	-176.409	132.178	34.5938	-152.962	128.351	24.1466	-188.417	89.5154	14.9814	-165.483	106.817	2.69058	-160.626	124.33	27.0798	-167.267	81.1864	15.6	-150.693	105.995	10.2723	-153.691	116.426	41.8198	-153.877	74.981	27.0567	-138.875	100.84	29.9778	-151.202	109.577	51.5385	-145.622	67.7244	42.2309	-134.856	89.9469	40.9743	-148.072	104.483	57.46	-183.401	58.968	63.4456	-193.176	58.7717	86.1056	-206.501	72.3273	65.9363	
21	0.175	-207.805	106.121	66.2993	-197.619	126.982	49.6707	-181.918	135.152	28.5071	-160.604	136.583	21.7395	-177.727	90.17	10.3737	-163.658	110.175	-2.22115	-165.038	130.915	19.2072	-158.925	88.698	10.5928	-144.401	114.469	10.5892	-154.929	126.433	35.9339	-144.797	84.6765	28.6665	-137.248	113.093	26.6362	-149.803	121.706	48.6426	-135.5	84.1053	42.4102	-132.867	108.026	40.328	-146.366	117.855	55.4311	-171.236	66.1121	63.8635	-182.945	65.5849	90.1305	-198.115	74.3836	65.6079	
22	0.183333	-204.336	106.44	65.8009	-193.336	123.321	40.1607	-180.228	132.157	21.0602	-155.227	137.371	12.6698	-171.357	87.4831	12.8407	-156.484	108.041	-2.51555	-164.106	128.975	15.7017	-149.459	90.6382	14.9811	-137.001	114.845	9.58928	-155.116	129.219	36.9973	-138.75	92.3584	31.2729	-130.963	118.985	25.7304	-150.988	128.259	43.5556	-125.25	94.4415	47.5844	-127.645	118.608	41.0254	-144.101	129.358	53.8795	-157.722	72.9276	70.2081	-173.358	72.0321	94.8893	-189.321	75.3291	67.5698	
